# xmcd
#
# Track frame offsets:
#	150
#	15373
#	24996
#	36819
#	46730
#	58340
#	67462
#	75179
#	84992
#	96047
#	106285
#	116978
#	126730
#	136935
#	150751
#	162149
#	174204
#	185769
#	196795
#	206436
#	214940
#	227884
#	240932
#	255426
#	267206
#	273587
#	286711
#	299249
#	310632
#	321615
#
# Disc length: 4410 seconds
#
# Revision: 1
# Processed by: cddbd v1.5.1PL0 Copyright (c) Steve Scherf et al.
# Submitted via: CDmax 2.0
#
DISCID=a511381e
DTITLE=Elvis Presley - Elvis Blues and Ballards
DYEAR=2002
DGENRE=Blues
TTITLE0=Peace in the Valley
TTITLE1=True Love
TTITLE2=Suspicion
TTITLE3=She's Not You
TTITLE4=Sentimental Me
TTITLE5=Never Ending Love
TTITLE6=I've Known You Forever
TTITLE7=Marie's the Name Of His Latest Flame
TTITLE8=Good Luck Charm
TTITLE9=Fountain of Love
TTITLE10=Do You or Don't You
TTITLE11=Tell Me Why
TTITLE12=Loving You
TTITLE13=Lonesome Cowboy
TTITLE14=Is it So Strange
TTITLE15=I Need You So
TTITLE16=Have I told you lately, I Love You
TTITLE17=Young Dreams
TTITLE18=Don't Ask Me Why
TTITLE19=As Lon As I Have You
TTITLE20=Don't
TTITLE21=Playing For Keeps
TTITLE22=The Best I Can
TTITLE23=Pocket Full of Rainbows
TTITLE24=Tonight's Alright For Love
TTITLE25=Love Letters
TTITLE26=Lonely Man
TTITLE27=It Huts Me
TTITLE28=Crying in the Chapel
TTITLE29=Wooden Heart
EXTD=
EXTT0=
EXTT1=
EXTT2=
EXTT3=
EXTT4=
EXTT5=
EXTT6=
EXTT7=
EXTT8=
EXTT9=
EXTT10=
EXTT11=
EXTT12=
EXTT13=
EXTT14=
EXTT15=
EXTT16=
EXTT17=
EXTT18=
EXTT19=
EXTT20=
EXTT21=
EXTT22=
EXTT23=
EXTT24=
EXTT25=
EXTT26=
EXTT27=
EXTT28=
EXTT29=
PLAYORDER=
